<svg width="375" height="30" viewBox="0 0 375 30" fill="none" xmlns="http://www.w3.org/2000/svg">
<g clip-path="url(#clip0_71_511)">
<path d="M309 30C306.925 30 304.975 29.6063 303.15 28.8188C301.325 28.0313 299.738 26.9625 298.388 25.6125C297.038 24.2625 295.969 22.675 295.181 20.85C294.394 19.025 294 17.075 294 15C294 12.925 294.394 10.975 295.181 9.15C295.969 7.325 297.038 5.7375 298.388 4.3875C299.738 3.0375 301.325 1.96875 303.15 1.18125C304.975 0.39375 306.925 0 309 0C311.075 0 313.025 0.39375 314.85 1.18125C316.675 1.96875 318.263 3.0375 319.613 4.3875C320.963 5.7375 322.031 7.325 322.819 9.15C323.606 10.975 324 12.925 324 15C324 17.075 323.606 19.025 322.819 20.85C322.031 22.675 320.963 24.2625 319.613 25.6125C318.263 26.9625 316.675 28.0313 314.85 28.8188C313.025 29.6063 311.075 30 309 30ZM309 27C312.35 27 315.188 25.8375 317.513 23.5125C319.838 21.1875 321 18.35 321 15C321 11.65 319.838 8.8125 317.513 6.4875C315.188 4.1625 312.35 3 309 3C305.65 3 302.812 4.1625 300.488 6.4875C298.163 8.8125 297 11.65 297 15C297 18.35 298.163 21.1875 300.488 23.5125C302.812 25.8375 305.65 27 309 27ZM310.5 22.5H313.5V7.5H310.5V13.5H307.5V7.5H304.5V16.5H310.5V22.5Z" fill="#CACACA"/>
</g>
<g clip-path="url(#clip1_71_511)">
<path d="M228 30C225.925 30 223.975 29.6063 222.15 28.8188C220.325 28.0313 218.738 26.9625 217.388 25.6125C216.038 24.2625 214.969 22.675 214.181 20.85C213.394 19.025 213 17.075 213 15C213 12.925 213.394 10.975 214.181 9.15C214.969 7.325 216.038 5.7375 217.388 4.3875C218.738 3.0375 220.325 1.96875 222.15 1.18125C223.975 0.39375 225.925 0 228 0C230.075 0 232.025 0.39375 233.85 1.18125C235.675 1.96875 237.263 3.0375 238.613 4.3875C239.963 5.7375 241.031 7.325 241.819 9.15C242.606 10.975 243 12.925 243 15C243 17.075 242.606 19.025 241.819 20.85C241.031 22.675 239.963 24.2625 238.613 25.6125C237.263 26.9625 235.675 28.0313 233.85 28.8188C232.025 29.6063 230.075 30 228 30ZM228 27C231.35 27 234.188 25.8375 236.513 23.5125C238.838 21.1875 240 18.35 240 15C240 11.65 238.838 8.8125 236.513 6.4875C234.188 4.1625 231.35 3 228 3C224.65 3 221.812 4.1625 219.488 6.4875C217.163 8.8125 216 11.65 216 15C216 18.35 217.163 21.1875 219.488 23.5125C221.812 25.8375 224.65 27 228 27ZM225 22.5H229.5C230.325 22.5 231.031 22.2063 231.619 21.6188C232.206 21.0312 232.5 20.325 232.5 19.5V17.25C232.5 16.6 232.288 16.0625 231.863 15.6375C231.438 15.2125 230.9 15 230.25 15C230.9 15 231.438 14.7875 231.863 14.3625C232.288 13.9375 232.5 13.4 232.5 12.75V10.5C232.5 9.675 232.206 8.96875 231.619 8.38125C231.031 7.79375 230.325 7.5 229.5 7.5H225C224.575 7.5 224.219 7.64375 223.931 7.93125C223.644 8.21875 223.5 8.575 223.5 9C223.5 9.425 223.644 9.78125 223.931 10.0688C224.219 10.3563 224.575 10.5 225 10.5H229.5V13.5H228C227.575 13.5 227.219 13.6438 226.931 13.9313C226.644 14.2188 226.5 14.575 226.5 15C226.5 15.425 226.644 15.7813 226.931 16.0688C227.219 16.3563 227.575 16.5 228 16.5H229.5V19.5H225C224.575 19.5 224.219 19.6438 223.931 19.9313C223.644 20.2188 223.5 20.575 223.5 21C223.5 21.425 223.644 21.7812 223.931 22.0688C224.219 22.3563 224.575 22.5 225 22.5Z" fill="#4E709D"/>
</g>
<g clip-path="url(#clip2_71_511)">
<path d="M147 30C144.925 30 142.975 29.6062 141.15 28.8187C139.325 28.0312 137.738 26.9625 136.387 25.6125C135.038 24.2625 133.969 22.675 133.181 20.85C132.394 19.025 132 17.075 132 15C132 12.925 132.394 10.975 133.181 9.15C133.969 7.325 135.038 5.7375 136.387 4.3875C137.738 3.0375 139.325 1.96875 141.15 1.18125C142.975 0.39375 144.925 0 147 0C149.075 0 151.025 0.39375 152.85 1.18125C154.675 1.96875 156.262 3.0375 157.612 4.3875C158.962 5.7375 160.031 7.325 160.819 9.15C161.606 10.975 162 12.925 162 15C162 17.075 161.606 19.025 160.819 20.85C160.031 22.675 158.962 24.2625 157.612 25.6125C156.262 26.9625 154.675 28.0312 152.85 28.8187C151.025 29.6062 149.075 30 147 30ZM150 22.5C150.425 22.5 150.781 22.3562 151.069 22.0687C151.356 21.7812 151.5 21.425 151.5 21C151.5 20.575 151.356 20.2188 151.069 19.9312C150.781 19.6438 150.425 19.5 150 19.5H145.5V16.5H148.5C149.325 16.5 150.031 16.2062 150.619 15.6187C151.206 15.0312 151.5 14.325 151.5 13.5V10.5C151.5 9.675 151.206 8.96875 150.619 8.38125C150.031 7.79375 149.325 7.5 148.5 7.5H144C143.575 7.5 143.219 7.64375 142.931 7.93125C142.644 8.21875 142.5 8.575 142.5 9C142.5 9.425 142.644 9.78125 142.931 10.0687C143.219 10.3562 143.575 10.5 144 10.5H148.5V13.5H145.5C144.675 13.5 143.969 13.7937 143.381 14.3812C142.794 14.9688 142.5 15.675 142.5 16.5V21C142.5 21.425 142.644 21.7812 142.931 22.0687C143.219 22.3562 143.575 22.5 144 22.5H150Z" fill="#4E709D"/>
</g>
<g clip-path="url(#clip3_71_511)">
<path d="M66 30C63.925 30 61.975 29.6063 60.15 28.8188C58.325 28.0312 56.7375 26.9625 55.3875 25.6125C54.0375 24.2625 52.9688 22.675 52.1812 20.85C51.3938 19.025 51 17.075 51 15C51 12.925 51.3938 10.975 52.1812 9.15C52.9688 7.325 54.0375 5.7375 55.3875 4.3875C56.7375 3.0375 58.325 1.96875 60.15 1.18125C61.975 0.39375 63.925 0 66 0C68.075 0 70.025 0.39375 71.85 1.18125C73.675 1.96875 75.2625 3.0375 76.6125 4.3875C77.9625 5.7375 79.0312 7.325 79.8188 9.15C80.6063 10.975 81 12.925 81 15C81 17.075 80.6063 19.025 79.8188 20.85C79.0312 22.675 77.9625 24.2625 76.6125 25.6125C75.2625 26.9625 73.675 28.0312 71.85 28.8188C70.025 29.6063 68.075 30 66 30ZM65.25 10.5V21C65.25 21.425 65.3937 21.7812 65.6812 22.0687C65.9688 22.3562 66.325 22.5 66.75 22.5C67.175 22.5 67.5312 22.3562 67.8188 22.0687C68.1063 21.7812 68.25 21.425 68.25 21V9C68.25 8.575 68.1063 8.21875 67.8188 7.93125C67.5312 7.64375 67.175 7.5 66.75 7.5H63.75C63.325 7.5 62.9688 7.64375 62.6812 7.93125C62.3937 8.21875 62.25 8.575 62.25 9C62.25 9.425 62.3937 9.78125 62.6812 10.0687C62.9688 10.3562 63.325 10.5 63.75 10.5H65.25Z" fill="#4E709D"/>
</g>
<path d="M331.5 17C331.5 17 330.5 17 330 16.5C329.5 16 329.5 15.5 329.5 15.5C329.5 15.5 329.5 15 330 14.5C330.5 14 331.5 14 331.5 14H367.5C367.5 14 368.5 14 369 14.5C369.5 15 369.5 15.5 369.5 15.5C369.5 15.5 369.5 16 369 16.5C368.5 17 367.5 17 367.5 17H349.5H331.5Z" fill="#CACACA"/>
<path d="M250.5 17C250.5 17 249.5 17 249 16.5C248.5 16 248.5 15.5 248.5 15.5C248.5 15.5 248.5 15 249 14.5C249.5 14 250.5 14 250.5 14H286.5C286.5 14 287.5 14 288 14.5C288.5 15 288.5 15.5 288.5 15.5C288.5 15.5 288.5 16 288 16.5C287.5 17 286.5 17 286.5 17H268.5H250.5Z" fill="#CACACA"/>
<path d="M169.5 17C169.5 17 168.5 17 168 16.5C167.5 16 167.5 15.5 167.5 15.5C167.5 15.5 167.5 15 168 14.5C168.5 14 169.5 14 169.5 14H205.5C205.5 14 206.5 14 207 14.5C207.5 15 207.5 15.5 207.5 15.5C207.5 15.5 207.5 16 207 16.5C206.5 17 205.5 17 205.5 17H187.5H169.5Z" fill="#4E709D"/>
<path d="M88.5 17C88.5 17 87.5001 17 87.0001 16.5C86.5 16 86.5 15.5 86.5 15.5C86.5 15.5 86.5 15 87.0001 14.5C87.5001 14 88.5 14 88.5 14H124.5C124.5 14 125.5 14 126 14.5C126.5 15 126.5 15.5 126.5 15.5C126.5 15.5 126.5 16 126 16.5C125.5 17 124.5 17 124.5 17H106.5H88.5Z" fill="#4E709D"/>
<path d="M7.5 17C7.5 17 6.50005 17 6.00005 16.5C5.5 16 5.5 15.5 5.5 15.5C5.5 15.5 5.5 15 6.00005 14.5C6.50011 14 7.5 14 7.5 14H43.5C43.5 14 44.5 14 45 14.5C45.5 15 45.5 15.5 45.5 15.5C45.5 15.5 45.5 16 45 16.5C44.5 17 43.5 17 43.5 17H25.5H7.5Z" fill="#4E709D"/>
<defs>
<clipPath id="clip0_71_511">
<rect width="30" height="30" fill="white" transform="translate(294)"/>
</clipPath>
<clipPath id="clip1_71_511">
<rect width="30" height="30" fill="white" transform="translate(213)"/>
</clipPath>
<clipPath id="clip2_71_511">
<rect width="30" height="30" fill="white" transform="translate(132)"/>
</clipPath>
<clipPath id="clip3_71_511">
<rect width="30" height="30" fill="white" transform="translate(51)"/>
</clipPath>
</defs>
</svg>
