<svg width="21" height="20" viewBox="0 0 21 20" fill="none" xmlns="http://www.w3.org/2000/svg">
<path d="M2.125 18V18.5H2.625H7.625H8.125V18V11.5H13.125V18V18.5H13.625H18.625H19.125V18V8V7.73698L18.9083 7.58798L10.9083 2.08798L10.625 1.89323L10.3417 2.08798L2.34174 7.58798L2.125 7.73698V8V18ZM10.3383 0.81104L10.0515 0.401424L10.3383 0.81104C10.5104 0.690528 10.7396 0.690528 10.9117 0.81104L19.9117 7.11104C20.0454 7.2046 20.125 7.3575 20.125 7.52066V19C20.125 19.2761 19.9011 19.5 19.625 19.5H12.625C12.3489 19.5 12.125 19.2761 12.125 19V13V12.5H11.625H9.625H9.125V13V19C9.125 19.2761 8.90114 19.5 8.625 19.5H1.625C1.34886 19.5 1.125 19.2761 1.125 19V7.52066C1.125 7.3575 1.20461 7.2046 1.33827 7.11104L10.3383 0.81104Z" fill="black" stroke="black"/>
</svg>
