<svg width="125" height="125" viewBox="0 0 125 125" fill="none" xmlns="http://www.w3.org/2000/svg">
<g clip-path="url(#clip0_516_13783)">
<circle cx="62.5" cy="62.5" r="62.5" fill="#4E709D"/>
<path d="M63.0003 70C60.0836 70 57.6044 68.9792 55.5628 66.9375C53.5211 64.8958 52.5003 62.4167 52.5003 59.5V38.5C52.5003 35.5833 53.5211 33.1042 55.5628 31.0625C57.6044 29.0208 60.0836 28 63.0003 28C65.9169 28 68.3961 29.0208 70.4378 31.0625C72.4794 33.1042 73.5003 35.5833 73.5003 38.5V59.5C73.5003 62.4167 72.4794 64.8958 70.4378 66.9375C68.3961 68.9792 65.9169 70 63.0003 70ZM59.5003 91V83.7375C54.1336 82.9792 49.5398 80.7042 45.719 76.9125C41.8982 73.1208 39.5794 68.5125 38.7628 63.0875C38.6461 62.0958 38.9086 61.25 39.5503 60.55C40.1919 59.85 41.0086 59.5 42.0003 59.5C42.9919 59.5 43.8232 59.8354 44.494 60.5062C45.1648 61.1771 45.6169 62.0083 45.8503 63C46.6669 67.0833 48.694 70.4375 51.9315 73.0625C55.169 75.6875 58.8586 77 63.0003 77C67.2003 77 70.9044 75.6729 74.1128 73.0187C77.3211 70.3646 79.3336 67.025 80.1503 63C80.3836 62.0083 80.8357 61.1771 81.5065 60.5062C82.1773 59.8354 83.0086 59.5 84.0003 59.5C84.9919 59.5 85.8086 59.85 86.4503 60.55C87.0919 61.25 87.3544 62.0958 87.2378 63.0875C86.4211 68.3958 84.1169 72.975 80.3253 76.825C76.5336 80.675 71.9253 82.9792 66.5003 83.7375V91C66.5003 91.9917 66.1648 92.8229 65.494 93.4938C64.8232 94.1646 63.9919 94.5 63.0003 94.5C62.0086 94.5 61.1773 94.1646 60.5065 93.4938C59.8357 92.8229 59.5003 91.9917 59.5003 91ZM63.0003 63C63.9919 63 64.8232 62.6646 65.494 61.9937C66.1648 61.3229 66.5003 60.4917 66.5003 59.5V38.5C66.5003 37.5083 66.1648 36.6771 65.494 36.0062C64.8232 35.3354 63.9919 35 63.0003 35C62.0086 35 61.1773 35.3354 60.5065 36.0062C59.8357 36.6771 59.5003 37.5083 59.5003 38.5V59.5C59.5003 60.4917 59.8357 61.3229 60.5065 61.9937C61.1773 62.6646 62.0086 63 63.0003 63Z" fill="white"/>
</g>
<defs>
<clipPath id="clip0_516_13783">
<rect width="125" height="125" fill="white"/>
</clipPath>
</defs>
</svg>
