<svg width="24" height="25" viewBox="0 0 24 25" fill="none" xmlns="http://www.w3.org/2000/svg">
<path d="M1 23V16.2C1 15.6333 1.14583 15.1125 1.4375 14.6375C1.72917 14.1625 2.11667 13.8 2.6 13.55C3.63333 13.0333 4.68333 12.6458 5.75 12.3875C6.81667 12.1292 7.9 12 9 12C10.1 12 11.1833 12.1292 12.25 12.3875C13.3167 12.6458 14.3667 13.0333 15.4 13.55C15.8833 13.8 16.2708 14.1625 16.5625 14.6375C16.8542 15.1125 17 15.6333 17 16.2V23H9H1ZM19.05 23L19 16C19 15.2667 18.7958 14.5625 18.3875 13.8875C17.9792 13.2125 17.4 12.6333 16.65 12.15C17.5 12.25 18.3 12.4208 19.05 12.6625C19.8 12.9042 20.5 13.2 21.15 13.55C21.75 13.8833 22.2083 14.2542 22.525 14.6625C22.8417 15.0708 23 15.5167 23 16V23H21.15H19.05ZM9 11C7.9 11 6.95833 10.6083 6.175 9.825C5.39167 9.04167 5 8.1 5 7C5 5.9 5.39167 4.95833 6.175 4.175C6.95833 3.39167 7.9 3 9 3C10.1 3 11.0417 3.39167 11.825 4.175C12.6083 4.95833 13 5.9 13 7C13 8.1 12.6083 9.04167 11.825 9.825C11.0417 10.6083 10.1 11 9 11ZM19 7C19 8.1 18.6083 9.04167 17.825 9.825C17.0417 10.6083 16.1 11 15 11C14.8167 11 14.5833 10.9792 14.3 10.9375C14.0167 10.8958 13.7833 10.85 13.6 10.8C14.05 10.2667 14.3958 9.675 14.6375 9.025C14.8792 8.375 15 7.7 15 7C15 6.3 14.8792 5.625 14.6375 4.975C14.3958 4.325 14.05 3.73333 13.6 3.2C13.8333 3.11667 14.0667 3.0625 14.3 3.0375C14.5333 3.0125 14.7667 3 15 3C16.1 3 17.0417 3.39167 17.825 4.175C18.6083 4.95833 19 5.9 19 7Z" fill="#4E709D"/>
</svg>
