<svg width="15" height="18" viewBox="0 0 15 18" fill="none" xmlns="http://www.w3.org/2000/svg">
<path d="M2.35711 18C1.88568 18 1.48211 17.8321 1.14639 17.4964C0.810679 17.1607 0.642822 16.7571 0.642822 16.2857V7.71429C0.642822 7.24286 0.810679 6.83929 1.14639 6.50357C1.48211 6.16786 1.88568 6 2.35711 6H3.21425V4.28571C3.21425 3.1 3.63211 2.08929 4.46782 1.25357C5.30354 0.417857 6.31425 0 7.49996 0C8.68568 0 9.69639 0.417857 10.5321 1.25357C11.3678 2.08929 11.7857 3.1 11.7857 4.28571V6H12.6428C13.1143 6 13.5178 6.16786 13.8535 6.50357C14.1892 6.83929 14.3571 7.24286 14.3571 7.71429V16.2857C14.3571 16.7571 14.1892 17.1607 13.8535 17.4964C13.5178 17.8321 13.1143 18 12.6428 18H2.35711ZM2.35711 16.2857H12.6428V7.71429H2.35711V16.2857ZM7.49996 13.7143C7.97139 13.7143 8.37496 13.5464 8.71068 13.2107C9.04639 12.875 9.21425 12.4714 9.21425 12C9.21425 11.5286 9.04639 11.125 8.71068 10.7893C8.37496 10.4536 7.97139 10.2857 7.49996 10.2857C7.02854 10.2857 6.62496 10.4536 6.28925 10.7893C5.95354 11.125 5.78568 11.5286 5.78568 12C5.78568 12.4714 5.95354 12.875 6.28925 13.2107C6.62496 13.5464 7.02854 13.7143 7.49996 13.7143ZM4.92854 6H10.0714V4.28571C10.0714 3.57143 9.82139 2.96429 9.32139 2.46429C8.82139 1.96429 8.21425 1.71429 7.49996 1.71429C6.78568 1.71429 6.17854 1.96429 5.67854 2.46429C5.17854 2.96429 4.92854 3.57143 4.92854 4.28571V6Z" fill="#CACACA"/>
</svg>
