<svg width="125" height="125" viewBox="0 0 125 125" fill="none" xmlns="http://www.w3.org/2000/svg">
<g clip-path="url(#clip0_672_13783)">
<circle cx="62.5" cy="62.5" r="62.5" fill="#4E709D"/>
<path d="M43.5 78.5V43.5C43.5 42.5083 43.8354 41.6771 44.5062 41.0062C45.1771 40.3354 46.0083 40 47 40C47.9917 40 48.8229 40.3354 49.4937 41.0062C50.1646 41.6771 50.5 42.5083 50.5 43.5V78.5C50.5 79.4917 50.1646 80.3229 49.4937 80.9937C48.8229 81.6646 47.9917 82 47 82C46.0083 82 45.1771 81.6646 44.5062 80.9937C43.8354 80.3229 43.5 79.4917 43.5 78.5ZM57.5 92.5V29.5C57.5 28.5083 57.8354 27.6771 58.5062 27.0062C59.1771 26.3354 60.0083 26 61 26C61.9917 26 62.8229 26.3354 63.4937 27.0062C64.1646 27.6771 64.5 28.5083 64.5 29.5V92.5C64.5 93.4917 64.1646 94.3229 63.4937 94.9937C62.8229 95.6646 61.9917 96 61 96C60.0083 96 59.1771 95.6646 58.5062 94.9937C57.8354 94.3229 57.5 93.4917 57.5 92.5ZM29.5 64.5V57.5C29.5 56.5083 29.8354 55.6771 30.5062 55.0062C31.1771 54.3354 32.0083 54 33 54C33.9917 54 34.8229 54.3354 35.4937 55.0062C36.1646 55.6771 36.5 56.5083 36.5 57.5V64.5C36.5 65.4917 36.1646 66.3229 35.4937 66.9937C34.8229 67.6646 33.9917 68 33 68C32.0083 68 31.1771 67.6646 30.5062 66.9937C29.8354 66.3229 29.5 65.4917 29.5 64.5ZM71.5 78.5V43.5C71.5 42.5083 71.8354 41.6771 72.5062 41.0062C73.1771 40.3354 74.0083 40 75 40C75.9917 40 76.8229 40.3354 77.4937 41.0062C78.1646 41.6771 78.5 42.5083 78.5 43.5V78.5C78.5 79.4917 78.1646 80.3229 77.4937 80.9937C76.8229 81.6646 75.9917 82 75 82C74.0083 82 73.1771 81.6646 72.5062 80.9937C71.8354 80.3229 71.5 79.4917 71.5 78.5ZM85.5 64.5V57.5C85.5 56.5083 85.8354 55.6771 86.5062 55.0062C87.1771 54.3354 88.0083 54 89 54C89.9917 54 90.8229 54.3354 91.4937 55.0062C92.1646 55.6771 92.5 56.5083 92.5 57.5V64.5C92.5 65.4917 92.1646 66.3229 91.4937 66.9937C90.8229 67.6646 89.9917 68 89 68C88.0083 68 87.1771 67.6646 86.5062 66.9937C85.8354 66.3229 85.5 65.4917 85.5 64.5Z" fill="white"/>
</g>
<defs>
<clipPath id="clip0_672_13783">
<rect width="125" height="125" fill="white"/>
</clipPath>
</defs>
</svg>
