<svg width="50" height="50" viewBox="0 0 50 50" fill="none" xmlns="http://www.w3.org/2000/svg">
<g clip-path="url(#clip0_174_1057)">
<path d="M9.125 38.625C11.5833 36.9721 14.1042 35.7048 16.6875 34.8231C19.2708 33.941 22.0417 33.5 25 33.5C27.9583 33.5 30.736 33.941 33.3331 34.8231C35.9306 35.7048 38.4585 36.9721 40.9169 38.625C42.6252 36.5554 43.8717 34.3956 44.6562 32.1456C45.4408 29.8956 45.8331 27.5138 45.8331 25C45.8331 19.125 43.8298 14.184 39.8231 10.1769C35.816 6.17021 30.875 4.16687 25 4.16687C19.125 4.16687 14.184 6.17021 10.1769 10.1769C6.17021 14.184 4.16687 19.125 4.16687 25C4.16687 27.5138 4.56604 29.8956 5.36438 32.1456C6.16313 34.3956 7.41667 36.5554 9.125 38.625ZM24.9925 27.0831C22.5671 27.0831 20.5244 26.2508 18.8644 24.5863C17.2048 22.9212 16.375 20.876 16.375 18.4506C16.375 16.0252 17.2075 13.9827 18.8725 12.3231C20.5371 10.6631 22.5821 9.83313 25.0075 9.83313C27.4329 9.83313 29.4756 10.6656 31.1356 12.3306C32.7952 13.9956 33.625 16.0408 33.625 18.4663C33.625 20.8917 32.7925 22.9342 31.1275 24.5938C29.4629 26.2533 27.4179 27.0831 24.9925 27.0831ZM24.9831 50C21.5206 50 18.2669 49.3438 15.2219 48.0312C12.1765 46.7188 9.5275 44.9306 7.275 42.6669C5.02208 40.4027 3.24646 37.7521 1.94812 34.715C0.649375 31.6779 0 28.4327 0 24.9794C0 21.526 0.65625 18.2806 1.96875 15.2431C3.28125 12.206 5.06938 9.5625 7.33313 7.3125C9.59729 5.0625 12.2479 3.28125 15.285 1.96875C18.3221 0.65625 21.5673 0 25.0206 0C28.474 0 31.7194 0.65625 34.7569 1.96875C37.794 3.28125 40.4375 5.0625 42.6875 7.3125C44.9375 9.5625 46.7188 12.2083 48.0312 15.25C49.3438 18.2917 50 21.5379 50 24.9888C50 28.44 49.3438 31.6831 48.0312 34.7181C46.7188 37.7531 44.9375 40.4027 42.6875 42.6669C40.4375 44.9306 37.7898 46.7188 34.7444 48.0312C31.6994 49.3438 28.4456 50 24.9831 50Z" fill="#4E709D"/>
</g>
<defs>
<clipPath id="clip0_174_1057">
<rect width="50" height="50" fill="white"/>
</clipPath>
</defs>
</svg>
